<svg xmlns="http://www.w3.org/2000/svg" viewBox="0 0 100 100" width="100" height="100">
  <defs>
    <clipPath id="c"><circle cx="50" cy="50" r="50"/></clipPath>
  </defs>

  <!-- Dark green circle background -->
  <circle cx="50" cy="50" r="50" fill="#2A3F30"/>

  <!-- Subtle horizontal ribbed texture -->
  <g clip-path="url(#c)" opacity="0.16" stroke="#6B9478" stroke-width="0.9" fill="none">
    <line x1="0" y1="26" x2="100" y2="26"/><line x1="0" y1="30" x2="100" y2="30"/>
    <line x1="0" y1="34" x2="100" y2="34"/><line x1="0" y1="38" x2="100" y2="38"/>
    <line x1="0" y1="42" x2="100" y2="42"/><line x1="0" y1="46" x2="100" y2="46"/>
    <line x1="0" y1="50" x2="100" y2="50"/><line x1="0" y1="54" x2="100" y2="54"/>
    <line x1="0" y1="58" x2="100" y2="58"/><line x1="0" y1="62" x2="100" y2="62"/>
    <line x1="0" y1="66" x2="100" y2="66"/><line x1="0" y1="70" x2="100" y2="70"/>
    <line x1="0" y1="74" x2="100" y2="74"/>
  </g>

  <!-- Orange outer ring -->
  <circle cx="50" cy="50" r="46" fill="none" stroke="#E8713A" stroke-width="2.5"/>

  <!-- Orange badge / label frame -->
  <path d="M50 22 C63 22 75 31 79 42 C83 52 79 63 72 70 C64 78 54 80 50 80 C46 80 36 78 28 70 C21 63 17 52 21 42 C25 31 37 22 50 22 Z"
        fill="none" stroke="#E8713A" stroke-width="2.5"/>

  <!-- Inner decorative border -->
  <path d="M50 28 C61 28 71 36 74 45 C77 53 74 62 68 68 C61 74 54 76 50 76 C46 76 39 74 32 68 C26 62 23 53 26 45 C29 36 39 28 50 28 Z"
        fill="none" stroke="rgba(232,113,58,0.40)" stroke-width="1"/>

  <!-- WEGGY text -->
  <text x="50" y="57"
        font-family="Georgia, 'Times New Roman', serif"
        font-size="16.5"
        font-weight="bold"
        fill="#F5E4C0"
        text-anchor="middle"
        letter-spacing="2.5">WEGGY</text>
</svg>
